<svg width="24" height="24" viewBox="0 0 24 24" fill="none" xmlns="http://www.w3.org/2000/svg">
<path d="M12.4351 14.3301L2.91758 8.27332C2.42554 7.94793 2.08097 7.44231 1.95807 6.86535C1.83517 6.28839 1.94378 5.68624 2.2605 5.18857C2.57721 4.6909 3.07671 4.33752 3.65143 4.20452C4.22614 4.07153 4.8301 4.16956 5.33325 4.4775L12.3158 8.92072L18.5851 4.5321C19.0742 4.20064 19.6741 4.07489 20.2552 4.182C20.8362 4.28912 21.3518 4.6205 21.6906 5.10458C22.0294 5.58865 22.1642 6.18657 22.0659 6.76919C21.9676 7.35181 21.644 7.87236 21.1651 8.21842L12.4351 14.3301Z" fill="#EA4435"/>
<path d="M20.625 19.8755H17.625V6.37555C17.625 5.77881 17.8621 5.20652 18.284 4.78456C18.706 4.3626 19.2783 4.12555 19.875 4.12555C20.4717 4.12555 21.044 4.3626 21.466 4.78456C21.8879 5.20652 22.125 5.77881 22.125 6.37555V18.3755C22.125 18.7734 21.967 19.1549 21.6857 19.4362C21.4044 19.7175 21.0228 19.8755 20.625 19.8755Z" fill="#00AC47"/>
<path d="M22.0922 6.04921C22.0856 6.00421 22.0861 5.95823 22.0768 5.91331C22.0624 5.84446 22.0356 5.78086 22.015 5.71441C21.9951 5.63835 21.9711 5.56342 21.9432 5.48993C21.9282 5.45431 21.9051 5.42303 21.8881 5.38838C21.8414 5.28841 21.7874 5.19202 21.7265 5.10001C21.6965 5.05643 21.659 5.01931 21.6259 4.97806C21.569 4.90309 21.5075 4.83173 21.4417 4.76438C21.3919 4.71586 21.335 4.67528 21.2808 4.63156C21.2232 4.58215 21.1631 4.53566 21.1008 4.49228C21.0413 4.45343 20.9762 4.42351 20.9133 4.39036C20.847 4.35578 20.782 4.31813 20.713 4.29053C20.6464 4.26368 20.5753 4.24658 20.5056 4.22611C20.4359 4.20563 20.3666 4.18111 20.2951 4.16783C20.2064 4.15359 20.117 4.14458 20.0273 4.14083C19.9704 4.13686 19.914 4.12688 19.8568 4.12733C19.7507 4.13043 19.645 4.14108 19.5404 4.15921C19.4982 4.16551 19.4557 4.16498 19.4137 4.17368C19.2722 4.21693 19.1311 4.26143 18.9904 4.30718C18.9517 4.32368 18.9179 4.34821 18.8805 4.36681C18.4996 4.54453 18.1784 4.82875 17.9556 5.18513C17.7328 5.54151 17.618 5.95478 17.6251 6.37501V10.6965L21.1651 8.21828C21.5127 7.98498 21.7853 7.65592 21.9498 7.27094C22.1143 6.88595 22.1639 6.46169 22.0922 6.04921Z" fill="#FFBA00"/>
<path d="M4.125 4.125C4.72174 4.125 5.29403 4.36205 5.71599 4.78401C6.13795 5.20597 6.375 5.77826 6.375 6.375V19.875H3.375C2.97718 19.875 2.59564 19.717 2.31434 19.4357C2.03304 19.1544 1.875 18.7728 1.875 18.375V6.375C1.875 5.77826 2.11205 5.20597 2.53401 4.78401C2.95597 4.36205 3.52826 4.125 4.125 4.125Z" fill="#4285F4"/>
<path d="M1.90785 6.04919C1.91445 6.00419 1.91393 5.95821 1.9233 5.91328C1.9377 5.84443 1.96448 5.78083 1.98503 5.71438C2.00495 5.63835 2.02893 5.56345 2.05688 5.48998C2.07188 5.45436 2.09498 5.42308 2.11208 5.38843C2.15871 5.28842 2.21271 5.192 2.27363 5.09999C2.30363 5.05641 2.34113 5.01928 2.37428 4.97803C2.43114 4.90306 2.49261 4.8317 2.55833 4.76436C2.6082 4.71583 2.66505 4.67526 2.71935 4.63153C2.77696 4.5821 2.83704 4.53562 2.89935 4.49226C2.95883 4.45341 3.02393 4.42348 3.08685 4.39033C3.15188 4.35355 3.21871 4.32006 3.2871 4.28998C3.35385 4.26313 3.42495 4.24603 3.49455 4.22556C3.56415 4.20508 3.63353 4.18056 3.70508 4.16728C3.79372 4.15305 3.88313 4.14403 3.97283 4.14028C4.02983 4.13631 4.08615 4.12633 4.1433 4.12678C4.2494 4.12987 4.35514 4.14053 4.45973 4.15866C4.50195 4.16496 4.54448 4.16443 4.58648 4.17313C4.65907 4.19163 4.73067 4.21386 4.80098 4.23973C4.87168 4.25853 4.94139 4.28086 5.00985 4.30663C5.0484 4.32313 5.08223 4.34766 5.11973 4.36626C5.21695 4.41193 5.31074 4.46457 5.40038 4.52376C5.70085 4.73008 5.9466 5.00643 6.11639 5.32896C6.28618 5.65149 6.37491 6.01049 6.37493 6.37498V10.6965L2.83493 8.21841C2.48736 7.98504 2.21484 7.65598 2.05031 7.27102C1.88579 6.88605 1.83631 6.46167 1.90785 6.04919Z" fill="#C52528"/>
</svg>
