<svg width="24" height="24" viewBox="0 0 24 24" fill="none" xmlns="http://www.w3.org/2000/svg">
<path d="M20.678 5.80566H3.24048C3.054 5.80566 2.87516 5.73158 2.74329 5.59972C2.61143 5.46786 2.53735 5.28902 2.53735 5.10254C2.53735 4.91606 2.61143 4.73722 2.74329 4.60535C2.87516 4.47349 3.054 4.39941 3.24048 4.39941H20.678C20.8645 4.39941 21.0433 4.47349 21.1752 4.60535C21.307 4.73722 21.3811 4.91606 21.3811 5.10254C21.3811 5.28902 21.307 5.46786 21.1752 5.59972C21.0433 5.73158 20.8645 5.80566 20.678 5.80566Z" fill="#101820"/>
<path d="M20.678 11.1119H3.24048C3.054 11.1119 2.87516 11.0379 2.74329 10.906C2.61143 10.7741 2.53735 10.5953 2.53735 10.4088C2.53735 10.2223 2.61143 10.0435 2.74329 9.91163C2.87516 9.77977 3.054 9.70569 3.24048 9.70569H20.678C20.8645 9.70569 21.0433 9.77977 21.1752 9.91163C21.307 10.0435 21.3811 10.2223 21.3811 10.4088C21.3811 10.5953 21.307 10.7741 21.1752 10.906C21.0433 11.0379 20.8645 11.1119 20.678 11.1119Z" fill="#101820"/>
<path d="M20.678 16.4182H3.24048C3.054 16.4182 2.87516 16.3441 2.74329 16.2123C2.61143 16.0804 2.53735 15.9016 2.53735 15.7151C2.53735 15.5286 2.61143 15.3498 2.74329 15.2179C2.87516 15.086 3.054 15.012 3.24048 15.012H20.678C20.8645 15.012 21.0433 15.086 21.1752 15.2179C21.307 15.3498 21.3811 15.5286 21.3811 15.7151C21.3811 15.9016 21.307 16.0804 21.1752 16.2123C21.0433 16.3441 20.8645 16.4182 20.678 16.4182Z" fill="#101820"/>
</svg>
