<svg width="24" height="24" viewBox="0 0 24 24" fill="none" xmlns="http://www.w3.org/2000/svg">
<g clip-path="url(#clip0_503_1206)">
<path fill-rule="evenodd" clip-rule="evenodd" d="M22 7C22 4.239 19.761 2 17 2C13.946 2 10.054 2 7 2C4.239 2 2 4.239 2 7C2 10.054 2 13.946 2 17C2 19.761 4.239 22 7 22C10.054 22 13.946 22 17 22C19.761 22 22 19.761 22 17C22 13.946 22 10.054 22 7Z" fill="url(#paint0_radial_503_1206)"/>
<path d="M14.958 5.00501C17.049 5.02501 18.974 6.82001 18.995 9.04201C19.002 11.014 19.002 12.986 18.995 14.958C18.975 17.041 17.18 18.974 14.958 18.995C12.986 19.002 11.014 19.002 9.04201 18.995C6.95001 18.975 5.02601 17.18 5.00501 14.958C4.99801 12.986 4.99801 11.014 5.00501 9.04201C5.02401 6.94901 6.81501 5.02601 9.04201 5.00501C11.014 4.99801 12.986 4.99801 14.958 5.00501ZM9.06901 5.95001C7.44601 5.95501 5.96601 7.36201 5.95001 9.04801C5.94401 11.016 5.94401 12.984 5.95001 14.952C5.96501 16.557 7.33801 18.034 9.04801 18.05C11.016 18.056 12.984 18.056 14.952 18.05C16.561 18.035 18.034 16.662 18.05 14.952C18.056 12.984 18.056 11.016 18.05 9.04801C18.035 7.43201 16.635 5.96601 14.952 5.95001C12.991 5.94401 11.03 5.95001 9.06901 5.95001Z" fill="white"/>
<path d="M12.0241 8.5C13.6421 8.515 15.1501 9.763 15.4461 11.362C15.6571 12.502 15.2591 13.738 14.4191 14.54C13.4841 15.43 12.0371 15.748 10.7971 15.294C9.41111 14.787 8.43611 13.326 8.50111 11.846C8.58011 10.078 10.1421 8.506 12.0001 8.5C12.0081 8.5 12.0161 8.5 12.0241 8.5ZM11.9841 9.447C10.8291 9.458 9.74011 10.334 9.50011 11.472C9.25711 12.623 9.91911 13.9 11.0061 14.359C12.1931 14.861 13.7261 14.298 14.2991 13.126C14.8921 11.915 14.3331 10.27 13.0811 9.685C12.7401 9.526 12.3611 9.446 11.9841 9.447Z" fill="white"/>
<path fill-rule="evenodd" clip-rule="evenodd" d="M16.5 8.227C16.5 8.034 16.423 7.849 16.287 7.713C16.151 7.577 15.966 7.5 15.773 7.5C15.758 7.5 15.742 7.5 15.727 7.5C15.534 7.5 15.349 7.577 15.213 7.713C15.077 7.849 15 8.034 15 8.227C15 8.235 15 8.242 15 8.25C15 8.449 15.079 8.64 15.22 8.78C15.36 8.921 15.551 9 15.75 9C16.164 9 16.5 8.664 16.5 8.25C16.5 8.242 16.5 8.235 16.5 8.227Z" fill="white"/>
</g>
<defs>
<radialGradient id="paint0_radial_503_1206" cx="0" cy="0" r="1" gradientUnits="userSpaceOnUse" gradientTransform="translate(2 21.5) scale(27.933)">
<stop stop-color="#FF8100"/>
<stop offset="0.19" stop-color="#FF7209"/>
<stop offset="0.32" stop-color="#F55E16"/>
<stop offset="0.48" stop-color="#D92938"/>
<stop offset="1" stop-color="#9100FF"/>
</radialGradient>
<clipPath id="clip0_503_1206">
<rect width="24" height="24" fill="white"/>
</clipPath>
</defs>
</svg>
