<svg width="24" height="27" viewBox="0 0 24 27" fill="none" xmlns="http://www.w3.org/2000/svg">
<path d="M1 10.939C1 11.3208 1.146 11.6465 1.44922 11.9385L10.209 20.5073C10.4448 20.7544 10.7593 20.8779 11.1187 20.8779C11.8486 20.8779 12.4214 20.3164 12.4214 19.5752C12.4214 19.2158 12.2754 18.8901 12.0283 18.6431L4.1333 10.939L12.0283 3.23486C12.2754 2.97656 12.4214 2.65088 12.4214 2.2915C12.4214 1.56152 11.8486 1 11.1187 1C10.7593 1 10.4448 1.12354 10.209 1.37061L1.44922 9.93945C1.146 10.2314 1.01123 10.5571 1 10.939Z" fill="#FF9500"/>
</svg>
