<svg width="18" height="21" viewBox="0 0 18 21" fill="none" xmlns="http://www.w3.org/2000/svg">
<path d="M17.25 12.0458C17.25 11.7594 17.1405 11.5151 16.9131 11.2961L10.3433 4.86951C10.1664 4.6842 9.93054 4.59155 9.66101 4.59155C9.11353 4.59155 8.68396 5.0127 8.68396 5.5686C8.68396 5.83813 8.79346 6.0824 8.97876 6.2677L14.9 12.0458L8.97876 17.8239C8.79346 18.0176 8.68396 18.2618 8.68396 18.5314C8.68396 19.0789 9.11353 19.5 9.66101 19.5C9.93054 19.5 10.1664 19.4073 10.3433 19.222L16.9131 12.7954C17.1405 12.5764 17.2416 12.3322 17.25 12.0458Z" fill="#002059" fill-opacity="0.7"/>
</svg>
